<svg width="70" height="70" viewBox="0 0 70 70" fill="none" xmlns="http://www.w3.org/2000/svg">
<path d="M70 35C70 54.33 54.33 70 35 70C15.67 70 0 54.33 0 35C0 15.67 15.67 0 35 0C54.33 0 70 15.67 70 35Z" fill="#45315D"/>
<path d="M30 45.4815L20 35.8519L23.5 32.4815L30 38.7407L46.5 22.8519L50 26.2222L30 45.4815Z" fill="#FEF7FF"/>
<path d="M29.6532 45.8416L30 46.1756L30.3468 45.8416L50.3468 26.5824L50.7208 26.2222L50.3468 25.8621L46.8468 22.4917L46.5 22.1577L46.1532 22.4917L30 38.0466L23.8468 32.1213L23.5 31.7873L23.1532 32.1213L19.6532 35.4917L19.2792 35.8519L19.6532 36.212L29.6532 45.8416ZM29.6532 39.1009L30 39.4349L30.3468 39.1009L46.5 23.546L49.2792 26.2222L30 44.7873L20.7208 35.8519L23.5 33.1756L29.6532 39.1009ZM69.5 35C69.5 54.0538 54.0538 69.5 35 69.5C15.9462 69.5 0.5 54.0538 0.5 35C0.5 15.9462 15.9462 0.5 35 0.5C54.0538 0.5 69.5 15.9462 69.5 35Z" stroke="black"/>
</svg>
