<svg width="57" height="11" viewBox="0 0 57 11" fill="none" xmlns="http://www.w3.org/2000/svg">
<path d="M56.5407 2.54537V3.93741H52.1507V2.54537H56.5407ZM53.2346 0.71582H55.0343V7.88485C55.0343 8.12681 55.0707 8.31241 55.1436 8.44167C55.2199 8.56762 55.3193 8.65379 55.4419 8.7002C55.5646 8.7466 55.7005 8.7698 55.8496 8.7698C55.9623 8.7698 56.065 8.76151 56.1578 8.74494C56.254 8.72837 56.3269 8.71345 56.3766 8.7002L56.6799 10.1072C56.5837 10.1403 56.4462 10.1768 56.2672 10.2165C56.0916 10.2563 55.8761 10.2795 55.6209 10.2861C55.1702 10.2994 54.7641 10.2314 54.4029 10.0823C54.0416 9.92984 53.7549 9.69451 53.5428 9.37633C53.334 9.05815 53.2312 8.66042 53.2346 8.18315V0.71582Z" fill="#F5F5F5"/>
<path d="M49.0771 6.97013V2.54541H50.8768V10.1818H49.1317V8.82453H49.0522C48.8798 9.25209 48.5965 9.60175 48.2021 9.87354C47.811 10.1453 47.3287 10.2812 46.7553 10.2812C46.2548 10.2812 45.8124 10.1702 45.4279 9.94811C45.0468 9.72273 44.7485 9.39626 44.533 8.96871C44.3176 8.53784 44.2099 8.01747 44.2099 7.40763V2.54541H46.0096V7.12922C46.0096 7.61312 46.1422 7.99759 46.4073 8.28263C46.6725 8.56766 47.0205 8.71018 47.4513 8.71018C47.7165 8.71018 47.9734 8.64555 48.2219 8.51629C48.4705 8.38703 48.6744 8.1948 48.8334 7.93959C48.9959 7.68106 49.0771 7.35791 49.0771 6.97013Z" fill="#F5F5F5"/>
<path d="M39.0233 10.331C38.2775 10.331 37.6312 10.1669 37.0843 9.8388C36.5375 9.51068 36.1132 9.05163 35.8116 8.46167C35.5133 7.87171 35.3642 7.18231 35.3642 6.39349C35.3642 5.60466 35.5133 4.91361 35.8116 4.32033C36.1132 3.72706 36.5375 3.26636 37.0843 2.93823C37.6312 2.61011 38.2775 2.44604 39.0233 2.44604C39.769 2.44604 40.4153 2.61011 40.9622 2.93823C41.5091 3.26636 41.9316 3.72706 42.2299 4.32033C42.5315 4.91361 42.6823 5.60466 42.6823 6.39349C42.6823 7.18231 42.5315 7.87171 42.2299 8.46167C41.9316 9.05163 41.5091 9.51068 40.9622 9.8388C40.4153 10.1669 39.769 10.331 39.0233 10.331ZM39.0332 8.88923C39.4376 8.88923 39.7756 8.77819 40.0474 8.55613C40.3192 8.33075 40.5214 8.02914 40.6539 7.6513C40.7898 7.27346 40.8578 6.85253 40.8578 6.38852C40.8578 5.92119 40.7898 5.4986 40.6539 5.12076C40.5214 4.73961 40.3192 4.43634 40.0474 4.21096C39.7756 3.98558 39.4376 3.87289 39.0332 3.87289C38.6189 3.87289 38.2742 3.98558 37.9991 4.21096C37.7273 4.43634 37.5235 4.73961 37.3876 5.12076C37.255 5.4986 37.1887 5.92119 37.1887 6.38852C37.1887 6.85253 37.255 7.27346 37.3876 7.6513C37.5235 8.02914 37.7273 8.33075 37.9991 8.55613C38.2742 8.77819 38.6189 8.88923 39.0332 8.88923Z" fill="#F5F5F5"/>
<path d="M29.6767 7.78551L29.6717 5.61293H29.96L32.7044 2.54545H34.8073L31.4316 6.30398H31.0588L29.6767 7.78551ZM28.036 10.1818V0H29.8358V10.1818H28.036ZM32.8287 10.1818L30.3429 6.70668L31.5559 5.43892L34.9814 10.1818H32.8287Z" fill="#F5F5F5"/>
<path d="M22.4853 10.1818V2.54541H24.2303V3.81814H24.3098C24.449 3.37732 24.6877 3.0376 25.0257 2.79896C25.3671 2.55701 25.7566 2.43604 26.1941 2.43604C26.2935 2.43604 26.4045 2.44101 26.5272 2.45095C26.6531 2.45758 26.7575 2.46918 26.8404 2.48575V4.14129C26.7641 4.11478 26.6432 4.09158 26.4774 4.07169C26.315 4.04849 26.1576 4.03689 26.0051 4.03689C25.677 4.03689 25.382 4.10815 25.1202 4.25067C24.8617 4.38987 24.6578 4.58376 24.5087 4.83234C24.3595 5.08092 24.285 5.36762 24.285 5.69243V10.1818H22.4853Z" fill="#F5F5F5"/>
<path d="M17.2986 10.331C16.5529 10.331 15.9066 10.1669 15.3597 9.8388C14.8129 9.51068 14.3886 9.05163 14.087 8.46167C13.7887 7.87171 13.6396 7.18231 13.6396 6.39349C13.6396 5.60466 13.7887 4.91361 14.087 4.32033C14.3886 3.72706 14.8129 3.26636 15.3597 2.93823C15.9066 2.61011 16.5529 2.44604 17.2986 2.44604C18.0444 2.44604 18.6907 2.61011 19.2376 2.93823C19.7844 3.26636 20.207 3.72706 20.5053 4.32033C20.8069 4.91361 20.9577 5.60466 20.9577 6.39349C20.9577 7.18231 20.8069 7.87171 20.5053 8.46167C20.207 9.05163 19.7844 9.51068 19.2376 9.8388C18.6907 10.1669 18.0444 10.331 17.2986 10.331ZM17.3086 8.88923C17.7129 8.88923 18.051 8.77819 18.3228 8.55613C18.5946 8.33075 18.7968 8.02914 18.9293 7.6513C19.0652 7.27346 19.1332 6.85253 19.1332 6.38852C19.1332 5.92119 19.0652 5.4986 18.9293 5.12076C18.7968 4.73961 18.5946 4.43634 18.3228 4.21096C18.051 3.98558 17.7129 3.87289 17.3086 3.87289C16.8943 3.87289 16.5496 3.98558 16.2745 4.21096C16.0027 4.43634 15.7989 4.73961 15.663 5.12076C15.5304 5.4986 15.4641 5.92119 15.4641 6.38852C15.4641 6.85253 15.5304 7.27346 15.663 7.6513C15.7989 8.02914 16.0027 8.33075 16.2745 8.55613C16.5496 8.77819 16.8943 8.88923 17.3086 8.88923Z" fill="#F5F5F5"/>
<path d="M2.87358 10.1818L0 0H1.98366L3.81818 7.48224H3.91264L5.87145 0H7.67614L9.63992 7.48722H9.7294L11.5639 0H13.5476L10.674 10.1818H8.8544L6.81605 3.03764H6.73651L4.69318 10.1818H2.87358Z" fill="#F5F5F5"/>
</svg>
