<svg width="38" height="14" viewBox="0 0 38 14" fill="none" xmlns="http://www.w3.org/2000/svg">
<path d="M29.9717 13.1846V2.68464H31.7416V3.94742H31.846C31.9388 3.76181 32.0697 3.56461 32.2388 3.3558C32.4078 3.14368 32.6365 2.96305 32.9249 2.8139C33.2132 2.66144 33.5811 2.58521 34.0285 2.58521C34.6185 2.58521 35.1505 2.73601 35.6244 3.03762C36.1017 3.33592 36.4795 3.77839 36.758 4.36503C37.0397 4.94837 37.1805 5.66428 37.1805 6.51276C37.1805 7.3513 37.043 8.0639 36.7679 8.65055C36.4928 9.23719 36.1183 9.68464 35.6443 9.99288C35.1704 10.3011 34.6334 10.4552 34.0335 10.4552C33.596 10.4552 33.2331 10.3823 32.9447 10.2365C32.6564 10.0906 32.4244 9.91499 32.2487 9.7095C32.0764 9.50069 31.9421 9.30348 31.846 9.11788H31.7714V13.1846H29.9717ZM31.7366 6.50282C31.7366 6.99666 31.8062 7.42919 31.9455 7.8004C32.088 8.17162 32.2918 8.46163 32.557 8.67043C32.8254 8.87593 33.1502 8.97867 33.5314 8.97867C33.9291 8.97867 34.2622 8.87261 34.5307 8.66049C34.7991 8.44505 35.0013 8.15173 35.1372 7.78052C35.2764 7.40599 35.346 6.98009 35.346 6.50282C35.346 6.02886 35.2781 5.60793 35.1422 5.24003C35.0063 4.87214 34.8041 4.58378 34.5357 4.37498C34.2672 4.16617 33.9324 4.06177 33.5314 4.06177C33.1469 4.06177 32.8205 4.16286 32.552 4.36503C32.2835 4.56721 32.0797 4.85059 31.9405 5.21518C31.8046 5.57976 31.7366 6.00897 31.7366 6.50282Z" fill="#F5F5F5"/>
<path d="M25.0536 10.4701C24.288 10.4701 23.6267 10.3111 23.0699 9.99288C22.5164 9.67138 22.0905 9.21731 21.7922 8.63066C21.4939 8.0407 21.3448 7.34633 21.3448 6.54756C21.3448 5.76205 21.4939 5.07266 21.7922 4.47938C22.0938 3.88279 22.5148 3.41877 23.055 3.08734C23.5953 2.75258 24.23 2.58521 24.9591 2.58521C25.4298 2.58521 25.8739 2.66144 26.2915 2.8139C26.7124 2.96305 27.0837 3.19505 27.4052 3.50992C27.73 3.82479 27.9852 4.22583 28.1708 4.71305C28.3564 5.19695 28.4492 5.77365 28.4492 6.44316V6.99501H22.19V5.78194H26.724C26.7207 5.43724 26.6462 5.13066 26.5003 4.86219C26.3545 4.59041 26.1507 4.37664 25.8888 4.22086C25.6303 4.06508 25.3287 3.98719 24.984 3.98719C24.6161 3.98719 24.2929 4.07668 24.0145 4.25566C23.7361 4.43132 23.519 4.66333 23.3632 4.95168C23.2108 5.23672 23.1329 5.54993 23.1296 5.89131V6.95026C23.1296 7.39439 23.2108 7.77555 23.3732 8.09373C23.5356 8.4086 23.7626 8.65055 24.0543 8.81958C24.346 8.9853 24.6873 9.06816 25.0784 9.06816C25.3403 9.06816 25.5773 9.0317 25.7894 8.95878C26.0015 8.88255 26.1855 8.77152 26.3412 8.62569C26.497 8.47985 26.6147 8.29922 26.6942 8.08378L28.3746 8.2727C28.2686 8.71683 28.0664 9.10462 27.7681 9.43606C27.4731 9.76418 27.0953 10.0194 26.6346 10.2017C26.1739 10.3807 25.6469 10.4701 25.0536 10.4701Z" fill="#F5F5F5"/>
<path d="M16.7548 10.4701C15.9891 10.4701 15.3279 10.3111 14.7711 9.99288C14.2176 9.67138 13.7917 9.21731 13.4934 8.63066C13.1951 8.0407 13.046 7.34633 13.046 6.54756C13.046 5.76205 13.1951 5.07266 13.4934 4.47938C13.795 3.88279 14.2159 3.41877 14.7562 3.08734C15.2964 2.75258 15.9311 2.58521 16.6603 2.58521C17.1309 2.58521 17.5751 2.66144 17.9927 2.8139C18.4136 2.96305 18.7848 3.19505 19.1063 3.50992C19.4311 3.82479 19.6863 4.22583 19.8719 4.71305C20.0576 5.19695 20.1504 5.77365 20.1504 6.44316V6.99501H13.8911V5.78194H18.4252C18.4219 5.43724 18.3473 5.13066 18.2015 4.86219C18.0557 4.59041 17.8518 4.37664 17.59 4.22086C17.3315 4.06508 17.0299 3.98719 16.6852 3.98719C16.3173 3.98719 15.9941 4.07668 15.7157 4.25566C15.4373 4.43132 15.2202 4.66333 15.0644 4.95168C14.912 5.23672 14.8341 5.54993 14.8308 5.89131V6.95026C14.8308 7.39439 14.912 7.77555 15.0744 8.09373C15.2368 8.4086 15.4638 8.65055 15.7555 8.81958C16.0471 8.9853 16.3885 9.06816 16.7796 9.06816C17.0415 9.06816 17.2784 9.0317 17.4906 8.95878C17.7027 8.88255 17.8866 8.77152 18.0424 8.62569C18.1982 8.47985 18.3158 8.29922 18.3954 8.08378L20.0758 8.2727C19.9697 8.71683 19.7675 9.10462 19.4692 9.43606C19.1743 9.76418 18.7964 10.0194 18.3357 10.2017C17.875 10.3807 17.348 10.4701 16.7548 10.4701Z" fill="#F5F5F5"/>
<path d="M11.5234 0.13916V10.321H9.72369V0.13916H11.5234Z" fill="#F5F5F5"/>
<path d="M6.24481 2.93821C6.19841 2.50402 6.00286 2.16596 5.65817 1.92401C5.31678 1.68206 4.87266 1.56108 4.32578 1.56108C3.94131 1.56108 3.61153 1.61908 3.33643 1.73509C3.06134 1.85109 2.85088 2.00852 2.70504 2.20739C2.55921 2.40625 2.48464 2.63329 2.48132 2.88849C2.48132 3.10062 2.52938 3.28456 2.6255 3.44034C2.72493 3.59612 2.85916 3.72869 3.0282 3.83807C3.19723 3.94413 3.38449 4.03362 3.58999 4.10653C3.79548 4.17945 4.00263 4.24077 4.21143 4.29048L5.16598 4.52912C5.55045 4.61861 5.92 4.73958 6.27464 4.89205C6.6326 5.04451 6.95244 5.23674 7.23416 5.46875C7.5192 5.70076 7.74458 5.98082 7.9103 6.30895C8.07602 6.63707 8.15888 7.02154 8.15888 7.46236C8.15888 8.05895 8.00641 8.58428 7.70149 9.03835C7.39657 9.48911 6.95575 9.84209 6.37905 10.0973C5.80566 10.3492 5.11129 10.4751 4.29595 10.4751C3.50381 10.4751 2.81607 10.3525 2.23274 10.1072C1.65272 9.86198 1.19865 9.50402 0.870525 9.03338C0.545714 8.56274 0.370052 7.98935 0.343536 7.31321H2.15817C2.18468 7.66785 2.29406 7.96283 2.48629 8.19815C2.67853 8.43348 2.92876 8.60914 3.237 8.72514C3.54856 8.84115 3.89657 8.89915 4.28104 8.89915C4.68208 8.89915 5.0334 8.83949 5.33501 8.72017C5.63994 8.59754 5.87857 8.4285 6.05092 8.21307C6.22327 7.99432 6.3111 7.73911 6.31442 7.44744C6.3111 7.18229 6.23321 6.96354 6.08075 6.79119C5.92829 6.61553 5.71451 6.4697 5.43942 6.35369C5.16764 6.23438 4.84946 6.12831 4.48487 6.03551L3.32649 5.73722C2.48795 5.52178 1.82507 5.19531 1.33785 4.75781C0.853953 4.317 0.612002 3.73201 0.612002 3.00284C0.612002 2.40294 0.774408 1.8776 1.09922 1.42685C1.42734 0.976089 1.87313 0.626421 2.43658 0.377841C3.00002 0.125947 3.63804 0 4.35064 0C5.07318 0 5.70623 0.125947 6.24979 0.377841C6.79666 0.626421 7.22588 0.972775 7.53743 1.4169C7.84898 1.85772 8.00973 2.36482 8.01967 2.93821H6.24481Z" fill="#F5F5F5"/>
</svg>
