<svg width="59" height="11" viewBox="0 0 59 11" fill="none" xmlns="http://www.w3.org/2000/svg">
<path d="M53.371 6.1996V10.674H51.5712V3.03766H53.2914V4.33525H53.3809C53.5566 3.90769 53.8366 3.56797 54.2211 3.31607C54.6089 3.06418 55.0878 2.93823 55.6579 2.93823C56.1849 2.93823 56.6439 3.05092 57.035 3.2763C57.4294 3.50168 57.7344 3.82815 57.9498 4.2557C58.1685 4.68326 58.2763 5.20196 58.2729 5.81181V10.674H56.4732V6.09022C56.4732 5.5798 56.3407 5.18042 56.0755 4.89207C55.8137 4.60372 55.4507 4.45954 54.9867 4.45954C54.6719 4.45954 54.3918 4.52914 54.1465 4.66835C53.9046 4.80424 53.714 5.00144 53.5748 5.25997C53.4389 5.51849 53.371 5.8317 53.371 6.1996Z" fill="#F3F3F3"/>
<path d="M46.3846 10.8232C45.6389 10.8232 44.9926 10.6591 44.4457 10.331C43.8988 10.0029 43.4746 9.54382 43.173 8.95386C42.8747 8.3639 42.7255 7.6745 42.7255 6.88568C42.7255 6.09685 42.8747 5.4058 43.173 4.81252C43.4746 4.21925 43.8988 3.75854 44.4457 3.43042C44.9926 3.10229 45.6389 2.93823 46.3846 2.93823C47.1304 2.93823 47.7767 3.10229 48.3236 3.43042C48.8704 3.75854 49.293 4.21925 49.5913 4.81252C49.8929 5.4058 50.0437 6.09685 50.0437 6.88568C50.0437 7.6745 49.8929 8.3639 49.5913 8.95386C49.293 9.54382 48.8704 10.0029 48.3236 10.331C47.7767 10.6591 47.1304 10.8232 46.3846 10.8232ZM46.3946 9.38141C46.7989 9.38141 47.137 9.27038 47.4088 9.04832C47.6806 8.82294 47.8827 8.52133 48.0153 8.14349C48.1512 7.76565 48.2191 7.34472 48.2191 6.8807C48.2191 6.41337 48.1512 5.99079 48.0153 5.61295C47.8827 5.23179 47.6806 4.92853 47.4088 4.70315C47.137 4.47777 46.7989 4.36508 46.3946 4.36508C45.9803 4.36508 45.6356 4.47777 45.3605 4.70315C45.0887 4.92853 44.8849 5.23179 44.749 5.61295C44.6164 5.99079 44.5501 6.41337 44.5501 6.8807C44.5501 7.34472 44.6164 7.76565 44.749 8.14349C44.8849 8.52133 45.0887 8.82294 45.3605 9.04832C45.6356 9.27038 45.9803 9.38141 46.3946 9.38141Z" fill="#F3F3F3"/>
<path d="M39.4033 10.674V3.03764H41.203V10.674H39.4033ZM40.3081 1.95384C40.0231 1.95384 39.7778 1.85938 39.5723 1.67045C39.3668 1.47822 39.2641 1.24787 39.2641 0.979403C39.2641 0.707623 39.3668 0.477273 39.5723 0.288352C39.7778 0.0961173 40.0231 0 40.3081 0C40.5965 0 40.8417 0.0961173 41.0439 0.288352C41.2494 0.477273 41.3521 0.707623 41.3521 0.979403C41.3521 1.24787 41.2494 1.47822 41.0439 1.67045C40.8417 1.85938 40.5965 1.95384 40.3081 1.95384Z" fill="#F3F3F3"/>
<path d="M37.8981 3.03755V4.4296H33.5082V3.03755H37.8981ZM34.592 1.20801H36.3917V8.37704C36.3917 8.61899 36.4282 8.8046 36.5011 8.93386C36.5773 9.05981 36.6768 9.14598 36.7994 9.19238C36.922 9.23878 37.0579 9.26198 37.2071 9.26198C37.3198 9.26198 37.4225 9.2537 37.5153 9.23713C37.6114 9.22056 37.6843 9.20564 37.7341 9.19238L38.0373 10.5993C37.9412 10.6325 37.8037 10.6689 37.6247 10.7087C37.449 10.7485 37.2336 10.7717 36.9784 10.7783C36.5276 10.7916 36.1216 10.7236 35.7603 10.5745C35.3991 10.422 35.1124 10.1867 34.9003 9.86852C34.6914 9.55034 34.5887 9.15261 34.592 8.67534V1.20801Z" fill="#F3F3F3"/>
<path d="M30.4345 10.674V3.03764H32.2342V10.674H30.4345ZM31.3394 1.95384C31.0543 1.95384 30.8091 1.85938 30.6036 1.67045C30.3981 1.47822 30.2953 1.24787 30.2953 0.979403C30.2953 0.707623 30.3981 0.477273 30.6036 0.288352C30.8091 0.0961173 31.0543 0 31.3394 0C31.6277 0 31.873 0.0961173 32.0751 0.288352C32.2806 0.477273 32.3834 0.707623 32.3834 0.979403C32.3834 1.24787 32.2806 1.47822 32.0751 1.67045C31.873 1.85938 31.6277 1.95384 31.3394 1.95384Z" fill="#F3F3F3"/>
<path d="M24.8837 10.674V3.0376H26.6288V4.31033H26.7083C26.8475 3.86951 27.0862 3.52979 27.4242 3.29115C27.7656 3.0492 28.1551 2.92822 28.5926 2.92822C28.692 2.92822 28.803 2.93319 28.9256 2.94314C29.0516 2.94977 29.156 2.96137 29.2389 2.97794V4.63348C29.1626 4.60696 29.0417 4.58376 28.8759 4.56388C28.7135 4.54068 28.5561 4.52908 28.4036 4.52908C28.0755 4.52908 27.7805 4.60033 27.5187 4.74285C27.2602 4.88206 27.0563 5.07595 26.9072 5.32453C26.758 5.57311 26.6835 5.8598 26.6835 6.18462V10.674H24.8837Z" fill="#F3F3F3"/>
<path d="M23.3786 3.03755V4.4296H18.9887V3.03755H23.3786ZM20.0725 1.20801H21.8722V8.37704C21.8722 8.61899 21.9087 8.8046 21.9816 8.93386C22.0578 9.05981 22.1572 9.14598 22.2799 9.19238C22.4025 9.23878 22.5384 9.26198 22.6875 9.26198C22.8002 9.26198 22.903 9.2537 22.9958 9.23713C23.0919 9.22056 23.1648 9.20564 23.2145 9.19238L23.5178 10.5993C23.4217 10.6325 23.2841 10.6689 23.1052 10.7087C22.9295 10.7485 22.7141 10.7717 22.4588 10.7783C22.0081 10.7916 21.6021 10.7236 21.2408 10.5745C20.8795 10.422 20.5928 10.1867 20.3807 9.86852C20.1719 9.55034 20.0692 9.15261 20.0725 8.67534V1.20801Z" fill="#F3F3F3"/>
<path d="M15.915 7.46231V3.0376H17.7147V10.674H15.9697V9.31672H15.8901C15.7178 9.74427 15.4344 10.0939 15.04 10.3657C14.6489 10.6375 14.1667 10.7734 13.5933 10.7734C13.0928 10.7734 12.6503 10.6624 12.2658 10.4403C11.8847 10.2149 11.5864 9.88845 11.371 9.46089C11.1555 9.03002 11.0478 8.50966 11.0478 7.89981V3.0376H12.8475V7.6214C12.8475 8.10531 12.9801 8.48978 13.2452 8.77481C13.5104 9.05985 13.8584 9.20237 14.2893 9.20237C14.5544 9.20237 14.8113 9.13774 15.0599 9.00848C15.3085 8.87922 15.5123 8.68698 15.6714 8.43177C15.8338 8.17325 15.915 7.8501 15.915 7.46231Z" fill="#F3F3F3"/>
<path d="M9.11759 0.492188V10.674H7.47696L2.67937 3.73864H2.59486V10.674H0.750397V0.492188H2.40096L7.19358 7.43253H7.28307V0.492188H9.11759Z" fill="#F3F3F3"/>
</svg>
