<svg width="70" height="11" viewBox="0 0 70 11" fill="none" xmlns="http://www.w3.org/2000/svg">
<path d="M69.8359 4.56394L68.1953 4.74292C68.1489 4.5772 68.0677 4.42142 67.9517 4.27559C67.839 4.12976 67.6866 4.0121 67.4943 3.92261C67.3021 3.83312 67.0668 3.78837 66.7884 3.78837C66.4138 3.78837 66.099 3.86958 65.8438 4.03198C65.5919 4.19439 65.4676 4.40485 65.4709 4.66337C65.4676 4.88544 65.5488 5.06607 65.7145 5.20528C65.8835 5.34448 66.1619 5.45883 66.5497 5.54832L67.8523 5.82673C68.5748 5.9825 69.1117 6.22943 69.4631 6.56749C69.8177 6.90556 69.9967 7.34803 70 7.89491C69.9967 8.3755 69.8558 8.79974 69.5774 9.16764C69.3023 9.53222 68.9195 9.81726 68.429 10.0227C67.9384 10.2282 67.375 10.331 66.7386 10.331C65.804 10.331 65.0516 10.1354 64.4815 9.74434C63.9115 9.34993 63.5717 8.8014 63.4624 8.09874L65.2173 7.92971C65.2969 8.27441 65.4659 8.53459 65.7244 8.71025C65.983 8.88591 66.3194 8.97374 66.7337 8.97374C67.1612 8.97374 67.5043 8.88591 67.7628 8.71025C68.0246 8.53459 68.1555 8.31749 68.1555 8.05897C68.1555 7.84022 68.071 7.65959 67.902 7.51707C67.7363 7.37455 67.4777 7.26517 67.1264 7.18894L65.8239 6.9155C65.0914 6.76304 64.5495 6.50618 64.1982 6.14491C63.8468 5.78033 63.6728 5.31962 63.6761 4.76281C63.6728 4.29216 63.8004 3.88449 64.0589 3.53979C64.3208 3.19178 64.6837 2.92332 65.1477 2.7344C65.6151 2.54216 66.1536 2.44604 66.7635 2.44604C67.6584 2.44604 68.3627 2.63662 68.8764 3.01778C69.3935 3.39893 69.7133 3.91432 69.8359 4.56394Z" fill="#F5F5F5"/>
<path d="M58.8823 10.331C58.1167 10.331 57.4554 10.1719 56.8986 9.85372C56.3451 9.53222 55.9192 9.07815 55.6209 8.4915C55.3226 7.90154 55.1735 7.20717 55.1735 6.4084C55.1735 5.62289 55.3226 4.9335 55.6209 4.34022C55.9225 3.74363 56.3435 3.27961 56.8837 2.94817C57.424 2.61342 58.0587 2.44604 58.7878 2.44604C59.2585 2.44604 59.7026 2.52228 60.1202 2.67474C60.5411 2.82389 60.9123 3.05589 61.2338 3.37076C61.5587 3.68563 61.8139 4.08667 61.9995 4.57389C62.1851 5.05779 62.2779 5.63449 62.2779 6.304V6.85585H56.0186V5.64278H60.5527C60.5494 5.29808 60.4749 4.9915 60.329 4.72303C60.1832 4.45125 59.9793 4.23747 59.7175 4.0817C59.459 3.92592 59.1574 3.84803 58.8127 3.84803C58.4448 3.84803 58.1216 3.93752 57.8432 4.1165C57.5648 4.29216 57.3477 4.52417 57.1919 4.81252C57.0395 5.09756 56.9616 5.41077 56.9583 5.75215V6.8111C56.9583 7.25523 57.0395 7.63639 57.2019 7.95457C57.3643 8.26943 57.5913 8.51139 57.883 8.68042C58.1747 8.84614 58.516 8.929 58.9071 8.929C59.169 8.929 59.406 8.89254 59.6181 8.81962C59.8302 8.74339 60.0141 8.63236 60.1699 8.48653C60.3257 8.34069 60.4434 8.16006 60.5229 7.94462L62.2033 8.13354C62.0972 8.57767 61.8951 8.96546 61.5968 9.2969C61.3018 9.62502 60.9239 9.88023 60.4632 10.0625C60.0025 10.2415 59.4756 10.331 58.8823 10.331Z" fill="#F5F5F5"/>
<path d="M50.7525 10.331C49.9902 10.331 49.3356 10.1636 48.7887 9.82886C48.2452 9.4941 47.8259 9.03175 47.5309 8.44178C47.2392 7.84851 47.0934 7.16574 47.0934 6.39349C47.0934 5.61792 47.2425 4.9335 47.5408 4.34022C47.8391 3.74363 48.2601 3.27961 48.8036 2.94817C49.3505 2.61342 49.9968 2.44604 50.7425 2.44604C51.3623 2.44604 51.9109 2.56039 52.3881 2.78908C52.8687 3.01446 53.2515 3.3343 53.5366 3.7486C53.8216 4.15959 53.984 4.64017 54.0238 5.19036H52.3036C52.234 4.82247 52.0683 4.51588 51.8065 4.27062C51.5479 4.02204 51.2016 3.89775 50.7674 3.89775C50.3995 3.89775 50.0764 3.99718 49.7979 4.19604C49.5195 4.39159 49.3024 4.67332 49.1467 5.04122C48.9942 5.40911 48.918 5.84993 48.918 6.36366C48.918 6.88402 48.9942 7.33146 49.1467 7.70599C49.2991 8.0772 49.5129 8.36389 49.788 8.56607C50.0664 8.76494 50.3929 8.86437 50.7674 8.86437C51.0326 8.86437 51.2695 8.81465 51.4783 8.71522C51.6905 8.61247 51.8678 8.46498 52.0103 8.27275C52.1528 8.08051 52.2506 7.84685 52.3036 7.57175H54.0238C53.9807 8.112 53.8216 8.59093 53.5465 9.00855C53.2714 9.42284 52.8969 9.74765 52.4229 9.98298C51.949 10.215 51.3922 10.331 50.7525 10.331Z" fill="#F5F5F5"/>
<path d="M42.1852 10.1818V2.54541H43.9302V3.81814H44.0098C44.149 3.37732 44.3876 3.0376 44.7257 2.79896C45.0671 2.55701 45.4565 2.43604 45.894 2.43604C45.9934 2.43604 46.1045 2.44101 46.2271 2.45095C46.353 2.45758 46.4574 2.46918 46.5403 2.48575V4.14129C46.4641 4.11478 46.3431 4.09158 46.1774 4.07169C46.015 4.04849 45.8575 4.03689 45.7051 4.03689C45.377 4.03689 45.082 4.10815 44.8201 4.25067C44.5616 4.38987 44.3578 4.58376 44.2086 4.83234C44.0595 5.08092 43.9849 5.36762 43.9849 5.69243V10.1818H42.1852Z" fill="#F5F5F5"/>
<path d="M38.5348 6.97013V2.54541H40.3345V10.1818H38.5895V8.82453H38.5099C38.3376 9.25209 38.0542 9.60175 37.6598 9.87354C37.2687 10.1453 36.7865 10.2812 36.2131 10.2812C35.7126 10.2812 35.2701 10.1702 34.8857 9.94811C34.5045 9.72273 34.2062 9.39626 33.9908 8.96871C33.7753 8.53784 33.6676 8.01747 33.6676 7.40763V2.54541H35.4673V7.12922C35.4673 7.61312 35.5999 7.99759 35.8651 8.28263C36.1302 8.56766 36.4782 8.71018 36.9091 8.71018C37.1742 8.71018 37.4311 8.64555 37.6797 8.51629C37.9283 8.38703 38.1321 8.1948 38.2912 7.93959C38.4536 7.68106 38.5348 7.35791 38.5348 6.97013Z" fill="#F5F5F5"/>
<path d="M28.481 10.331C27.7353 10.331 27.089 10.1669 26.5421 9.8388C25.9952 9.51068 25.571 9.05163 25.2694 8.46167C24.9711 7.87171 24.8219 7.18231 24.8219 6.39349C24.8219 5.60466 24.9711 4.91361 25.2694 4.32033C25.571 3.72706 25.9952 3.26636 26.5421 2.93823C27.089 2.61011 27.7353 2.44604 28.481 2.44604C29.2267 2.44604 29.873 2.61011 30.4199 2.93823C30.9668 3.26636 31.3894 3.72706 31.6877 4.32033C31.9893 4.91361 32.1401 5.60466 32.1401 6.39349C32.1401 7.18231 31.9893 7.87171 31.6877 8.46167C31.3894 9.05163 30.9668 9.51068 30.4199 9.8388C29.873 10.1669 29.2267 10.331 28.481 10.331ZM28.4909 8.88923C28.8953 8.88923 29.2334 8.77819 29.5051 8.55613C29.7769 8.33075 29.9791 8.02914 30.1117 7.6513C30.2476 7.27346 30.3155 6.85253 30.3155 6.38852C30.3155 5.92119 30.2476 5.4986 30.1117 5.12076C29.9791 4.73961 29.7769 4.43634 29.5051 4.21096C29.2334 3.98558 28.8953 3.87289 28.4909 3.87289C28.0766 3.87289 27.732 3.98558 27.4569 4.21096C27.1851 4.43634 26.9812 4.73961 26.8453 5.12076C26.7128 5.4986 26.6465 5.92119 26.6465 6.38852C26.6465 6.85253 26.7128 7.27346 26.8453 7.6513C26.9812 8.02914 27.1851 8.33075 27.4569 8.55613C27.732 8.77819 28.0766 8.88923 28.4909 8.88923Z" fill="#F5F5F5"/>
<path d="M23.502 4.56394L21.8613 4.74292C21.8149 4.5772 21.7337 4.42142 21.6177 4.27559C21.505 4.12976 21.3526 4.0121 21.1603 3.92261C20.9681 3.83312 20.7328 3.78837 20.4544 3.78837C20.0798 3.78837 19.765 3.86958 19.5098 4.03198C19.2579 4.19439 19.1336 4.40485 19.1369 4.66337C19.1336 4.88544 19.2148 5.06607 19.3805 5.20528C19.5495 5.34448 19.828 5.45883 20.2157 5.54832L21.5183 5.82673C22.2408 5.9825 22.7778 6.22943 23.1291 6.56749C23.4837 6.90556 23.6627 7.34803 23.666 7.89491C23.6627 8.3755 23.5218 8.79974 23.2434 9.16764C22.9683 9.53222 22.5855 9.81726 22.095 10.0227C21.6045 10.2282 21.041 10.331 20.4047 10.331C19.47 10.331 18.7176 10.1354 18.1476 9.74434C17.5775 9.34993 17.2378 8.8014 17.1284 8.09874L18.8833 7.92971C18.9629 8.27441 19.1319 8.53459 19.3905 8.71025C19.649 8.88591 19.9854 8.97374 20.3997 8.97374C20.8272 8.97374 21.1703 8.88591 21.4288 8.71025C21.6906 8.53459 21.8216 8.31749 21.8216 8.05897C21.8216 7.84022 21.737 7.65959 21.568 7.51707C21.4023 7.37455 21.1438 7.26517 20.7924 7.18894L19.4899 6.9155C18.7574 6.76304 18.2155 6.50618 17.8642 6.14491C17.5128 5.78033 17.3388 5.31962 17.3422 4.76281C17.3388 4.29216 17.4664 3.88449 17.725 3.53979C17.9868 3.19178 18.3497 2.92332 18.8137 2.7344C19.2811 2.54216 19.8197 2.44604 20.4295 2.44604C21.3244 2.44604 22.0287 2.63662 22.5424 3.01778C23.0595 3.39893 23.3793 3.91432 23.502 4.56394Z" fill="#F5F5F5"/>
<path d="M12.5483 10.331C11.7827 10.331 11.1215 10.1719 10.5646 9.85372C10.0111 9.53222 9.58523 9.07815 9.28694 8.4915C8.98864 7.90154 8.83949 7.20717 8.83949 6.4084C8.83949 5.62289 8.98864 4.9335 9.28694 4.34022C9.58855 3.74363 10.0095 3.27961 10.5497 2.94817C11.09 2.61342 11.7247 2.44604 12.4538 2.44604C12.9245 2.44604 13.3686 2.52228 13.7862 2.67474C14.2072 2.82389 14.5784 3.05589 14.8999 3.37076C15.2247 3.68563 15.4799 4.08667 15.6655 4.57389C15.8511 5.05779 15.9439 5.63449 15.9439 6.304V6.85585H9.68466V5.64278H14.2188C14.2154 5.29808 14.1409 4.9915 13.995 4.72303C13.8492 4.45125 13.6454 4.23747 13.3835 4.0817C13.125 3.92592 12.8234 3.84803 12.4787 3.84803C12.1108 3.84803 11.7876 3.93752 11.5092 4.1165C11.2308 4.29216 11.0137 4.52417 10.858 4.81252C10.7055 5.09756 10.6276 5.41077 10.6243 5.75215V6.8111C10.6243 7.25523 10.7055 7.63639 10.8679 7.95457C11.0303 8.26943 11.2573 8.51139 11.549 8.68042C11.8407 8.84614 12.1821 8.929 12.5732 8.929C12.835 8.929 13.072 8.89254 13.2841 8.81962C13.4962 8.74339 13.6802 8.63236 13.8359 8.48653C13.9917 8.34069 14.1094 8.16006 14.1889 7.94462L15.8693 8.13354C15.7633 8.57767 15.5611 8.96546 15.2628 9.2969C14.9678 9.62502 14.59 9.88023 14.1293 10.0625C13.6686 10.2415 13.1416 10.331 12.5483 10.331Z" fill="#F5F5F5"/>
<path d="M0.251068 10.1818V0H4.06925C4.85145 0 5.5077 0.13589 6.038 0.40767C6.57162 0.679451 6.97432 1.06061 7.2461 1.55114C7.52119 2.03835 7.65874 2.60677 7.65874 3.25639C7.65874 3.90933 7.51953 4.47609 7.24112 4.95668C6.96603 5.43395 6.56002 5.8035 6.02309 6.06534C5.48615 6.32386 4.82659 6.45313 4.04439 6.45313H1.32493V4.92188H3.79581C4.2532 4.92188 4.62773 4.8589 4.91939 4.73295C5.21106 4.60369 5.42649 4.41643 5.5657 4.17116C5.70822 3.92259 5.77948 3.61766 5.77948 3.25639C5.77948 2.89512 5.70822 2.58688 5.5657 2.33168C5.42318 2.07315 5.20609 1.8776 4.91442 1.74503C4.62275 1.60914 4.24657 1.54119 3.78587 1.54119H2.09553V10.1818H0.251068ZM5.51101 5.56818L8.03161 10.1818H5.97337L3.49752 5.56818H5.51101Z" fill="#F5F5F5"/>
</svg>
