<svg width="31" height="30" viewBox="0 0 31 30" fill="none" xmlns="http://www.w3.org/2000/svg">
<path d="M15.6772 11.2395C16.262 11.2395 16.9949 10.8442 17.4314 10.3171C17.8267 9.83946 18.115 9.17238 18.115 8.5053C18.115 8.41471 18.1067 8.32412 18.0903 8.25C17.4396 8.27471 16.6573 8.68649 16.1878 9.23827C15.8172 9.65828 15.4796 10.3171 15.4796 10.9924C15.4796 11.0913 15.4961 11.1901 15.5043 11.223C15.5455 11.2313 15.6114 11.2395 15.6772 11.2395ZM13.6183 21.2045C14.4172 21.2045 14.7713 20.6692 15.7678 20.6692C16.7808 20.6692 17.0032 21.1881 17.8926 21.1881C18.7656 21.1881 19.3503 20.381 19.9021 19.5904C20.5198 18.6845 20.7751 17.795 20.7915 17.7538C20.7339 17.7374 19.0621 17.0538 19.0621 15.1349C19.0621 13.4713 20.3797 12.7219 20.4539 12.6643C19.5809 11.4125 18.255 11.3795 17.8926 11.3795C16.9126 11.3795 16.1137 11.9725 15.6114 11.9725C15.0678 11.9725 14.3513 11.4125 13.503 11.4125C11.8889 11.4125 10.25 12.7466 10.25 15.2667C10.25 16.8315 10.8594 18.4868 11.6089 19.5574C12.2512 20.4633 12.8113 21.2045 13.6183 21.2045Z" fill="black"/>
</svg>
