<svg width="169" height="32" viewBox="0 0 169 32" fill="none" xmlns="http://www.w3.org/2000/svg">
<path d="M10.8409 31H0.528409V1.90909H10.9261C13.8523 1.90909 16.3712 2.49148 18.483 3.65625C20.5947 4.81155 22.2188 6.47348 23.3551 8.64205C24.5009 10.8106 25.0739 13.4053 25.0739 16.4261C25.0739 19.4564 24.5009 22.0606 23.3551 24.2386C22.2188 26.4167 20.5852 28.0881 18.4545 29.2528C16.3333 30.4176 13.7955 31 10.8409 31ZM6.67898 25.7301H10.5852C12.4034 25.7301 13.9328 25.4081 15.1733 24.7642C16.4233 24.1108 17.3608 23.1023 17.9858 21.7386C18.6203 20.3655 18.9375 18.5947 18.9375 16.4261C18.9375 14.2765 18.6203 12.5199 17.9858 11.1562C17.3608 9.79261 16.428 8.78883 15.1875 8.14489C13.947 7.50095 12.4176 7.17898 10.5994 7.17898H6.67898V25.7301ZM29.8963 31V9.18182H35.9475V31H29.8963ZM32.9361 6.36932C32.0365 6.36932 31.2647 6.07102 30.6208 5.47443C29.9863 4.86837 29.6691 4.14394 29.6691 3.30114C29.6691 2.4678 29.9863 1.75284 30.6208 1.15625C31.2647 0.550188 32.0365 0.247158 32.9361 0.247158C33.8357 0.247158 34.6028 0.550188 35.2372 1.15625C35.8812 1.75284 36.2032 2.4678 36.2032 3.30114C36.2032 4.14394 35.8812 4.86837 35.2372 5.47443C34.6028 6.07102 33.8357 6.36932 32.9361 6.36932ZM47.2259 18.3864V31H41.1748V9.18182H46.9418V13.0312H47.1975C47.6805 11.7623 48.4901 10.7585 49.6265 10.0199C50.7628 9.27178 52.1407 8.89773 53.76 8.89773C55.2751 8.89773 56.5962 9.22917 57.7231 9.89205C58.85 10.5549 59.7259 11.5019 60.3509 12.733C60.9759 13.9545 61.2884 15.4129 61.2884 17.108V31H55.2373V18.1875C55.2467 16.8523 54.9058 15.8106 54.2145 15.0625C53.5233 14.3049 52.5716 13.9261 51.3594 13.9261C50.545 13.9261 49.8253 14.1013 49.2003 14.4517C48.5848 14.8021 48.1019 15.3134 47.7515 15.9858C47.4106 16.6487 47.2354 17.4489 47.2259 18.3864ZM76.2955 31.4261C74.0891 31.4261 72.181 30.9574 70.5711 30.0199C68.9707 29.0729 67.7349 27.7566 66.8637 26.071C65.9925 24.3759 65.5569 22.411 65.5569 20.1761C65.5569 17.9223 65.9925 15.9527 66.8637 14.267C67.7349 12.572 68.9707 11.2557 70.5711 10.3182C72.181 9.37121 74.0891 8.89773 76.2955 8.89773C78.502 8.89773 80.4054 9.37121 82.0058 10.3182C83.6156 11.2557 84.8561 12.572 85.7274 14.267C86.5986 15.9527 87.0342 17.9223 87.0342 20.1761C87.0342 22.411 86.5986 24.3759 85.7274 26.071C84.8561 27.7566 83.6156 29.0729 82.0058 30.0199C80.4054 30.9574 78.502 31.4261 76.2955 31.4261ZM76.3239 26.7386C77.3277 26.7386 78.1658 26.4545 78.8382 25.8864C79.5105 25.3087 80.0171 24.5227 80.358 23.5284C80.7084 22.5341 80.8836 21.4025 80.8836 20.1335C80.8836 18.8646 80.7084 17.733 80.358 16.7386C80.0171 15.7443 79.5105 14.9583 78.8382 14.3807C78.1658 13.803 77.3277 13.5142 76.3239 13.5142C75.3107 13.5142 74.4584 13.803 73.7671 14.3807C73.0853 14.9583 72.5692 15.7443 72.2188 16.7386C71.8779 17.733 71.7075 18.8646 71.7075 20.1335C71.7075 21.4025 71.8779 22.5341 72.2188 23.5284C72.5692 24.5227 73.0853 25.3087 73.7671 25.8864C74.4584 26.4545 75.3107 26.7386 76.3239 26.7386Z" fill="#F2F4FB"/>
<path d="M91.4625 31V1.90909H97.613V13.9119H110.099V1.90909H116.235V31H110.099V18.983H97.613V31H91.4625ZM135.564 21.7102V9.18182H141.615V31H135.806V27.0369H135.578C135.086 28.3153 134.267 29.3428 133.121 30.1193C131.985 30.8958 130.597 31.2841 128.959 31.2841C127.501 31.2841 126.217 30.9527 125.11 30.2898C124.002 29.6269 123.135 28.6847 122.51 27.4631C121.895 26.2415 121.582 24.7784 121.573 23.0739V9.18182H127.624V21.9943C127.633 23.2822 127.979 24.3002 128.661 25.0483C129.342 25.7964 130.256 26.1705 131.402 26.1705C132.131 26.1705 132.813 26.0047 133.448 25.6733C134.082 25.3324 134.593 24.8305 134.982 24.1676C135.379 23.5047 135.574 22.6856 135.564 21.7102ZM146.949 31V1.90909H153V12.8466H153.185C153.45 12.2595 153.834 11.6629 154.335 11.0568C154.847 10.4413 155.51 9.92992 156.324 9.52273C157.148 9.10606 158.171 8.89773 159.392 8.89773C160.983 8.89773 162.451 9.31439 163.796 10.1477C165.14 10.9716 166.215 12.2169 167.02 13.8835C167.825 15.5407 168.227 17.6193 168.227 20.1193C168.227 22.553 167.834 24.608 167.048 26.2841C166.272 27.9508 165.211 29.215 163.867 30.0767C162.531 30.929 161.035 31.3551 159.378 31.3551C158.204 31.3551 157.205 31.161 156.381 30.7727C155.566 30.3845 154.899 29.8968 154.378 29.3097C153.857 28.7131 153.459 28.1117 153.185 27.5057H152.915V31H146.949ZM152.872 20.0909C152.872 21.3883 153.052 22.5199 153.412 23.4858C153.772 24.4517 154.293 25.2045 154.975 25.7443C155.656 26.2746 156.485 26.5398 157.46 26.5398C158.445 26.5398 159.279 26.2699 159.96 25.7301C160.642 25.1809 161.158 24.4233 161.509 23.4574C161.869 22.482 162.048 21.3598 162.048 20.0909C162.048 18.8314 161.873 17.7235 161.523 16.767C161.173 15.8106 160.656 15.0625 159.975 14.5227C159.293 13.983 158.455 13.7131 157.46 13.7131C156.476 13.7131 155.642 13.9735 154.96 14.4943C154.288 15.0152 153.772 15.7538 153.412 16.7102C153.052 17.6667 152.872 18.7936 152.872 20.0909Z" fill="#45315D"/>
</svg>
