<svg width="30" height="30" viewBox="0 0 30 30" fill="none" xmlns="http://www.w3.org/2000/svg">
<path fill-rule="evenodd" clip-rule="evenodd" d="M21.48 15.1534C21.48 14.6748 21.437 14.2146 21.3573 13.7727H15V16.3838H18.6327C18.4763 17.2275 18.0007 17.9424 17.2858 18.421V20.1147H19.4673C20.7436 18.9396 21.48 17.2091 21.48 15.1534Z" fill="#4285F4"/>
<path fill-rule="evenodd" clip-rule="evenodd" d="M15 21.75C16.8225 21.75 18.3505 21.1456 19.4673 20.1147L17.2858 18.421C16.6814 18.826 15.9082 19.0653 15 19.0653C13.2419 19.0653 11.7539 17.8779 11.2231 16.2825H8.96796V18.0314C10.0786 20.2374 12.3614 21.75 15 21.75Z" fill="#34A853"/>
<path fill-rule="evenodd" clip-rule="evenodd" d="M11.2231 16.2825C11.0881 15.8775 11.0114 15.4449 11.0114 15C11.0114 14.5551 11.0881 14.1225 11.2231 13.7175V11.9686H8.96795C8.5108 12.8799 8.25 13.9108 8.25 15C8.25 16.0892 8.5108 17.1201 8.96795 18.0314L11.2231 16.2825Z" fill="#FBBC05"/>
<path fill-rule="evenodd" clip-rule="evenodd" d="M15 10.9347C15.991 10.9347 16.8808 11.2752 17.5803 11.9441L19.5164 10.0081C18.3474 8.91886 16.8194 8.25 15 8.25C12.3614 8.25 10.0786 9.76261 8.96796 11.9686L11.2231 13.7175C11.7539 12.122 13.2419 10.9347 15 10.9347Z" fill="#EA4335"/>
</svg>
