<svg width="31" height="30" viewBox="0 0 31 30" fill="none" xmlns="http://www.w3.org/2000/svg">
<g clip-path="url(#clip0_161_197)">
<path fill-rule="evenodd" clip-rule="evenodd" d="M24.5 15.053C24.5 10.0532 20.4706 6 15.5 6C10.5294 6 6.5 10.0532 6.5 15.053C6.5 19.5717 9.79117 23.317 14.0938 23.9961V17.6699H11.8086V15.053H14.0938V13.0585C14.0938 10.7896 15.4374 9.53635 17.4932 9.53635C18.4779 9.53635 19.5078 9.71316 19.5078 9.71316V11.9411H18.3729C17.2549 11.9411 16.9062 12.6389 16.9062 13.3548V15.053H19.4023L19.0033 17.6699H16.9062V23.9961C21.2088 23.317 24.5 19.5717 24.5 15.053Z" fill="#1877F2"/>
</g>
<defs>
<clipPath id="clip0_161_197">
<rect width="18" height="18" fill="white" transform="translate(6.5 6)"/>
</clipPath>
</defs>
</svg>
